<svg xmlns="http://www.w3.org/2000/svg" xmlns:xlink="http://www.w3.org/1999/xlink" class="oiuV_" viewBox="0 0 94 102">
    <path class="Hf3gu" fill-rule="evenodd"
          d="M56 51h.12v2.16c-.24 2-1 3.7-2.28 5.1-1.28 1.4-2.88 2.34-4.8 2.82-.56.16-1.2.24-1.92.24h-.24c-.56 0-1.16-.08-1.8-.24-1.68-.4-3.16-1.2-4.44-2.4h-.12c-1.44-1.52-2.32-3.32-2.64-5.4V52.2c0-.4.04-.76.12-1.08.24-1.92.98-3.58 2.22-4.98 1.24-1.4 2.78-2.34 4.62-2.82a9.93 9.93 0 0 1 2.16-.24c.72 0 1.44.08 2.16.24 1.68.48 3.12 1.28 4.32 2.4 1.36 1.44 2.2 3.2 2.52 5.28zm-16.68 1.56c0 1.12.24 2.12.72 3 .24.56.6 1.08 1.08 1.56l10.8-10.8c-.08-.16-.24-.28-.48-.36a7.823 7.823 0 0 0-3-1.32 8.745 8.745 0 0 0-2.88 0c-1.12.16-2.12.58-3 1.26-.88.68-1.62 1.52-2.22 2.52-.6 1-.94 2.1-1.02 3.3v.84zm11.76 6.24c1.2-.88 2.16-1.96 2.88-3.24.4-.88.64-1.88.72-3v-.84c-.16-1.2-.48-2.28-.96-3.24-.24-.48-.52-.88-.84-1.2L42.08 58.2c.24.16.52.32.84.48.88.56 1.84.96 2.88 1.2h2.4c1.12-.24 2.08-.6 2.88-1.08zM91.28 0c.64 0 1.16.2 1.56.6.4.4.6.92.6 1.56v11.88c0 .64-.2 1.18-.6 1.62-.4.44-.92.66-1.56.66h-1.92l-9.72 53.04-.12.36-4.08 22.08h.72c.64 0 1.2.24 1.68.72s.72 1.04.72 1.68v5.4c0 .64-.24 1.2-.72 1.68s-1.04.72-1.68.72H17.84c-.64 0-1.2-.24-1.68-.72s-.72-1.04-.72-1.68v-5.4c0-.64.24-1.2.72-1.68s1.04-.72 1.68-.72h1.68L5.84 17.28l-.96-.96H2.72c-.64 0-1.16-.22-1.56-.66-.4-.44-.6-.98-.6-1.62V2.16c0-.64.2-1.16.6-1.56.4-.4.92-.6 1.56-.6h88.56zM23 16.32H7.04l.12.36 12.72 14.16 8.04-9.12-4.92-5.4zm18.12 0h-6.36l-4.92 5.4L38 30.84l8.04-9.12-4.92-5.4zm18.12 0h-6.36l-4.92 5.4L56 30.84l8.16-9.12-4.92-5.4zm27.96 0H71l-4.92 5.4 8.04 9.12L87.2 16.32zM11.96 42.48c.16 0 .28.04.36.12l7.56 8.52L27.92 42l-8.04-9-8.04 8.88.12.6zM38 71.28l.84-.96c-1.28-.48-2.48-1.16-3.6-2.04l2.76 3zm2.16-.36l-1.32 1.44L47 81.48l8.16-9.12-1.32-1.44c-2.16.8-4.44 1.2-6.84 1.2-2.4 0-4.68-.4-6.84-1.2zm15.12-.6l.84.96 2.64-3c-1.12.88-2.28 1.56-3.48 2.04zm7.92-9.12l.72-1.44c1.04-2.32 1.56-4.86 1.56-7.62s-.56-5.3-1.68-7.62c-.16-.48-.4-.92-.72-1.32-.96-1.84-2.22-3.44-3.78-4.8-1.56-1.36-3.3-2.44-5.22-3.24l-1.44-.6c-1.84-.56-3.72-.84-5.64-.84-1.92 0-3.8.28-5.64.84l-1.44.6c-1.92.8-3.66 1.88-5.22 3.24a18.185 18.185 0 0 0-3.9 4.8c-.24.4-.44.84-.6 1.32-1.12 2.4-1.68 4.96-1.68 7.68 0 2.72.52 5.24 1.56 7.56l.72 1.44c2.08 3.68 5.08 6.36 9 8.04l1.44.6c1.84.56 3.78.84 5.82.84 2.04 0 3.94-.28 5.7-.84l1.44-.6c3.92-1.68 6.92-4.36 9-8.04zm-6.24-29.28l8.16 9 8.16-9-8.16-9.12-8.16 9.12zm2.28 4.56L56 32.88l-.84 1.08c1.52.72 2.88 1.56 4.08 2.52zm-5.52-3l1.44-1.56L47 22.8l-8.16 9.12 1.44 1.56c2.16-.8 4.42-1.2 6.78-1.2 2.36 0 4.58.4 6.66 1.2zm-14.76.48L38 33l-3.24 3.6c1.2-1.04 2.6-1.92 4.2-2.64zm-10.08 6.96l8.16-9-8.16-9.12-8.16 9.12 8.16 9zm0 2.16l-8.16 9 8.16 9.12.24-.24c-1.36-2.72-2.04-5.64-2.04-8.76s.68-6.08 2.04-8.88l-.24-.24zm8.16 29.28l-8.16-9-8.64 9.72 7.8 9.24 9-9.96zm-.96 19.32h1.8v-.12l8.16-9L38 73.44l-9 9.96 6.96 8.16.12.12zm-1.92 0l-6.12-7.2-6.48 7.2h12.6zM47 83.52l-7.32 8.28h14.64L47 83.52zm9.12 8.28h1.8l.12-.24 7.08-7.92-9-10.2-8.16 9 8.16 9.12v.24zm9.96-7.08l-6.24 6.96h12.6l-6.36-6.96zm-9.12-12.36l9.12 10.2 8.16-9-9.12-10.2-8.16 9zm7.92-11.4l.24.24 8.16-9.12-8.16-9-.24.24c1.36 2.8 2.04 5.76 2.04 8.88 0 3.12-.68 6.04-2.04 8.76zM66.08 42l8.16 9.12L82.28 42l-.12-.12L74.24 33l-8.16 9zm-.96-21.36l3.96-4.32h-7.92l3.96 4.32zm-18.12 0l3.96-4.32h-7.92L47 20.64zm-18.12 0l3.96-4.32h-7.92l3.96 4.32zM7.64 19.32l3.84 20.88 7.44-8.28-11.28-12.6zm11.28 32.76l-6.6-7.2 2.28 12 4.32-4.8zm-3.48 6.12c-.16.16-.36.24-.6.24l2.04 10.68 2.4 2.88 8.64-9.72-8.04-9.12-4.44 5.04zm1.92 13.68l.36 1.8.6-.6-.96-1.2zm.6 3.6l2.76 15 6.36-7.08-7.8-9.24-1.32 1.32zm58.2 17.64H17.84c-.56.08-.88.4-.96.96v5.52c.08.56.4.88.96.96h58.32c.56-.08.88-.4.96-.96v-5.4c-.08-.64-.4-1-.96-1.08zm-2.04-1.68L77 75.84c-.16 0-.24.04-.24.12-.24 0-.44-.08-.6-.24l-.96-1.08-8.16 9 7.08 7.8zm3-16.8l.6-2.88-1.56 1.8.96 1.08zM78.2 69l1.8-9.48c-.08 0-.2-.08-.36-.24l-5.52-6.12-8.04 9.12 9.12 10.2 3-3.48zm2.04-11.16l2.64-14.4-7.68 8.64 5.04 5.76zm3.12-16.8l4.2-23.16-12.48 14.04 8.16 9 .12.12zm8.64-27V2.16c-.08-.4-.32-.64-.72-.72H2.72c-.4.08-.64.32-.72.72v11.88c.08.48.32.76.72.84h88.56c.4-.08.64-.36.72-.84z"></path>
</svg>